<?xml version="1.0" standalone="no"?>
<!DOCTYPE svg PUBLIC "-//W3C//DTD SVG 20010904//EN"
 "http://www.w3.org/TR/2001/REC-SVG-20010904/DTD/svg10.dtd">
<svg version="1.0" xmlns="http://www.w3.org/2000/svg"
 width="250.000000pt" height="250.000000pt" viewBox="0 0 250.000000 250.000000"
 preserveAspectRatio="xMidYMid meet">
<metadata>
Created by potrace 1.11, written by Peter Selinger 2001-2013
</metadata>
<g transform="translate(0.000000,250.000000) scale(0.100000,-0.100000)"
fill="#000000" stroke="none">
<path d="M1787 2229 c-255 -26 -427 -145 -543 -377 l-33 -67 -1 213 0 212
-347 -2 -348 -3 -3 -167 -2 -168 195 0 195 0 0 -635 0 -635 -195 0 -195 0 2
-167 3 -168 595 0 595 0 3 167 2 168 -212 2 -213 3 -3 165 c-4 237 14 576 37
687 23 112 67 197 133 259 94 88 219 123 471 131 l157 6 -2 191 -3 191 -105 1
c-58 0 -140 -3 -183 -7z"/>
</g>
</svg>
