<?xml version="1.0" encoding="utf-8"?>
<!-- Generator: Adobe Illustrator 22.1.0, SVG Export Plug-In . SVG Version: 6.00 Build 0)  -->
<svg version="1.1" id="Layer_1" xmlns="http://www.w3.org/2000/svg" xmlns:xlink="http://www.w3.org/1999/xlink" x="0px" y="0px"
	 viewBox="0 0 384 45" style="enable-background:new 0 0 384 45;" xml:space="preserve">
<path d="M234.5,28h-212c-3.6,0-6.5-2.9-6.5-6.5v0c0-3.6,2.9-6.5,6.5-6.5h212c3.6,0,6.5,2.9,6.5,6.5v0C241,25.1,238.1,28,234.5,28z"
	/>
<path d="M373,34h-21c-2.2,0-4-1.8-4-4V13c0-2.2,1.8-4,4-4h21c2.2,0,4,1.8,4,4v17C377,32.2,375.2,34,373,34z"/>
</svg>
