<?xml version="1.0" encoding="utf-8"?>
<!-- Generator: Adobe Illustrator 22.0.1, SVG Export Plug-In . SVG Version: 6.00 Build 0)  -->
<svg version="1.1" id="Layer_1" xmlns="http://www.w3.org/2000/svg" xmlns:xlink="http://www.w3.org/1999/xlink" x="0px" y="0px"
	 viewBox="0 0 59.8 59.7" style="enable-background:new 0 0 59.8 59.7;" xml:space="preserve">
<g>
	<path d="M0,0v60h60V0H0z M49.9,14.3c0,1-0.3,1.3-1.3,1.3c-2.8,0.1-5.6,0.2-8.3,0.6c-4.9,0.9-7.8,3.7-8.5,8.6
		c-0.5,3.4-0.7,6.8-0.8,10.3c-0.1,3,0,5.9,0,8.9c0,1.2,0.4,1.5,1.5,1.5c2.5-0.1,5,0,7.4,0c1,0,1.2,0.3,1.2,1.2c-0.1,2,0,4,0,6
		c0,0.8-0.3,1-1.1,1c-8.9,0-17.8,0-26.6,0c-0.8,0-1.1-0.3-1.1-1.1c0-2,0-4.1,0-6.1c0-0.8,0.3-1,1-1c2.4,0,4.8,0,7.2,0
		c0.8,0,1.1-0.2,1.1-1.1c0-9.4,0-18.8,0-28.2c0-0.3-0.1-0.5-0.1-0.9c-0.5,0-0.9-0.1-1.3-0.1c-2.2,0-4.5,0-6.7,0
		c-0.8,0-1.2-0.2-1.2-1.1c0-2,0-4.1,0-6.1c0-0.7,0.2-1,1-1c5,0,9.9,0,14.9,0c0.8,0,1,0.4,1,1.1c0,2.8,0,5.7,0,8.9
		c0.3-0.6,0.5-1,0.7-1.3c2.8-5.6,7.2-9,13.7-9.2c1.8-0.1,3.6-0.1,5.4-0.2c0.8,0,1.1,0.3,1.1,1.1C49.9,9.7,49.8,12,49.9,14.3z"/>
</g>
</svg>
