<?xml version="1.0" encoding="utf-8"?>
<!-- Generator: Adobe Illustrator 22.1.0, SVG Export Plug-In . SVG Version: 6.00 Build 0)  -->
<svg version="1.1" id="Layer_1" xmlns="http://www.w3.org/2000/svg" xmlns:xlink="http://www.w3.org/1999/xlink" x="0px" y="0px"
	 viewBox="0 0 450 49" style="enable-background:new 0 0 450 49;" xml:space="preserve">
<path d="M239.4,0.5H0v49h239.4L263.9,25L239.4,0.5z M134,28c0,1.1-0.9,2-2,2H14c-1.1,0-2-0.9-2-2v-6c0-1.1,0.9-2,2-2h118
	c1.1,0,2,0.9,2,2V28z M236,28c0,1.1-0.9,2-2,2h-85c-1.1,0-2-0.9-2-2v-6c0-1.1,0.9-2,2-2h85c1.1,0,2,0.9,2,2V28z"/>
<path d="M444,30H281c-1.1,0-2-0.9-2-2v-6c0-1.1,0.9-2,2-2h163c1.1,0,2,0.9,2,2v6C446,29.1,445.1,30,444,30z"/>
</svg>
