<?xml version="1.0" encoding="utf-8"?>
<!-- Generator: Adobe Illustrator 22.1.0, SVG Export Plug-In . SVG Version: 6.00 Build 0)  -->
<svg version="1.1" id="Layer_1" xmlns="http://www.w3.org/2000/svg" xmlns:xlink="http://www.w3.org/1999/xlink" x="0px" y="0px"
	 viewBox="0 0 520 111" style="enable-background:new 0 0 520 111;" xml:space="preserve">
<path d="M122,16H11c-1.1,0-2-0.9-2-2V6c0-1.1,0.9-2,2-2h111c1.1,0,2,0.9,2,2v8C124,15.1,123.1,16,122,16z"/>
<path d="M245,57H134c-1.1,0-2-0.9-2-2v-8c0-1.1,0.9-2,2-2h111c1.1,0,2,0.9,2,2v8C247,56.1,246.1,57,245,57z"/>
<path d="M485,57H374c-1.1,0-2-0.9-2-2v-8c0-1.1,0.9-2,2-2h111c1.1,0,2,0.9,2,2v8C487,56.1,486.1,57,485,57z"/>
<path d="M342,57h-67c-1.1,0-2-0.9-2-2v-8c0-1.1,0.9-2,2-2h67c1.1,0,2,0.9,2,2v8C344,56.1,343.1,57,342,57z"/>
<path d="M114,57H47c-1.1,0-2-0.9-2-2v-8c0-1.1,0.9-2,2-2h67c1.1,0,2,0.9,2,2v8C116,56.1,115.1,57,114,57z"/>
<path d="M446,82H335c-1.1,0-2-0.9-2-2v-8c0-1.1,0.9-2,2-2h111c1.1,0,2,0.9,2,2v8C448,81.1,447.1,82,446,82z"/>
<path d="M141,82H30c-1.1,0-2-0.9-2-2v-8c0-1.1,0.9-2,2-2h111c1.1,0,2,0.9,2,2v8C143,81.1,142.1,82,141,82z"/>
<path d="M228,82h-67c-1.1,0-2-0.9-2-2v-8c0-1.1,0.9-2,2-2h67c1.1,0,2,0.9,2,2v8C230,81.1,229.1,82,228,82z"/>
<path d="M308,82h-67c-1.1,0-2-0.9-2-2v-8c0-1.1,0.9-2,2-2h67c1.1,0,2,0.9,2,2v8C310,81.1,309.1,82,308,82z"/>
<path d="M158,107H47c-1.1,0-2-0.9-2-2v-8c0-1.1,0.9-2,2-2h111c1.1,0,2,0.9,2,2v8C160,106.1,159.1,107,158,107z"/>
<path d="M282,107H171c-1.1,0-2-0.9-2-2v-8c0-1.1,0.9-2,2-2h111c1.1,0,2,0.9,2,2v8C284,106.1,283.1,107,282,107z"/>
<path d="M508,107H397c-1.1,0-2-0.9-2-2v-8c0-1.1,0.9-2,2-2h111c1.1,0,2,0.9,2,2v8C510,106.1,509.1,107,508,107z"/>
<path d="M371,107h-67c-1.1,0-2-0.9-2-2v-8c0-1.1,0.9-2,2-2h67c1.1,0,2,0.9,2,2v8C373,106.1,372.1,107,371,107z"/>
</svg>
