<?xml version="1.0" encoding="utf-8"?>
<!-- Generator: Adobe Illustrator 22.1.0, SVG Export Plug-In . SVG Version: 6.00 Build 0)  -->
<svg version="1.1" id="Layer_1" xmlns="http://www.w3.org/2000/svg" xmlns:xlink="http://www.w3.org/1999/xlink" x="0px" y="0px"
	 viewBox="0 0 320 38" style="enable-background:new 0 0 320 38;" xml:space="preserve">
<path d="M50.3,38h-28c-1.1,0-2-0.9-2-2v-8c0-1.1,0.9-2,2-2h28c1.1,0,2,0.9,2,2v8C52.3,37.1,51.3,38,50.3,38z"/>
<path d="M176.3,38h-28c-1.1,0-2-0.9-2-2v-8c0-1.1,0.9-2,2-2h28c1.1,0,2,0.9,2,2v8C178.3,37.1,177.4,38,176.3,38z"/>
<path d="M298,38h-28c-1.1,0-2-0.9-2-2v-8c0-1.1,0.9-2,2-2h28c1.1,0,2,0.9,2,2v8C300,37.1,299.1,38,298,38z"/>
<path d="M69.8,11.9h-67c-1.1,0-2-0.9-2-2v-8c0-1.1,0.9-2,2-2h67c1.1,0,2,0.9,2,2v8C71.8,11,70.8,11.9,69.8,11.9z"/>
<path d="M195.8,11.9h-67c-1.1,0-2-0.9-2-2v-8c0-1.1,0.9-2,2-2h67c1.1,0,2,0.9,2,2v8C197.8,11,196.9,11.9,195.8,11.9z"/>
<path d="M318,11.9h-67c-1.1,0-2-0.9-2-2v-8c0-1.1,0.9-2,2-2h67c1.1,0,2,0.9,2,2v8C320,11,319.1,11.9,318,11.9z"/>
</svg>
