<?xml version="1.0" encoding="utf-8"?>
<!-- Generator: Adobe Illustrator 22.1.0, SVG Export Plug-In . SVG Version: 6.00 Build 0)  -->
<svg version="1.1" id="Layer_1" xmlns="http://www.w3.org/2000/svg" xmlns:xlink="http://www.w3.org/1999/xlink" x="0px" y="0px"
	 viewBox="0 0 124 30" style="enable-background:new 0 0 124 30;" xml:space="preserve">
<path d="M122,0H2C0.9,0,0,0.9,0,2v26c0,1.1,0.9,2,2,2h120c1.1,0,2-0.9,2-2V2C124,0.9,123.1,0,122,0z M15.5,21.5
	C11.9,21.5,9,18.6,9,15c0-3.6,2.9-6.5,6.5-6.5S22,11.4,22,15C22,18.6,19.1,21.5,15.5,21.5z M115,16c0,1.1-0.9,2-2,2H39
	c-1.1,0-2-0.9-2-2v-2c0-1.1,0.9-2,2-2h74c1.1,0,2,0.9,2,2V16z"/>
</svg>
