<?xml version="1.0" encoding="utf-8"?>
<!-- Generator: Adobe Illustrator 22.1.0, SVG Export Plug-In . SVG Version: 6.00 Build 0)  -->
<svg version="1.1" id="Layer_1" xmlns="http://www.w3.org/2000/svg" xmlns:xlink="http://www.w3.org/1999/xlink" x="0px" y="0px"
	 viewBox="0 0 429 35" style="enable-background:new 0 0 429 35;" xml:space="preserve">
<path d="M121.3,3.1H10.8C8.1,3.1,6,5.2,6,7.8v19.5c0,2.6,2.1,4.8,4.8,4.8h110.5c2.6,0,4.8-2.1,4.8-4.8V7.8
	C126,5.2,123.9,3.1,121.3,3.1z M92,19.9c0,1.1-0.9,2.1-2.1,2.1H16.1c-1.1,0-2.1-0.9-2.1-2.1V16c0-1.1,0.9-2.1,2.1-2.1h73.9
	c1.1,0,2.1,0.9,2.1,2.1V19.9z M119,22.1c0,1.1-0.9,2-2,2h-13c-1.1,0-2-0.9-2-2v-9c0-1.1,0.9-2,2-2h13c1.1,0,2,0.9,2,2V22.1z"/>
<path d="M273.3,2.9H136.8c-2.6,0-4.8,2.1-4.8,4.8v19.5c0,2.6,2.1,4.8,4.8,4.8h136.5c2.6,0,4.8-2.1,4.8-4.8V7.7
	C278,5.1,275.9,2.9,273.3,2.9z M243,19.4c0,1.1-0.9,2.1-2.1,2.1h-89.9c-1.1,0-2.1-0.9-2.1-2.1V16c0-1.1,0.9-2.1,2.1-2.1h89.9
	c1.1,0,2.1,0.9,2.1,2.1V19.4z M270,22.1c0,1.1-0.9,2-2,2h-13c-1.1,0-2-0.9-2-2v-9c0-1.1,0.9-2,2-2h13c1.1,0,2,0.9,2,2V22.1z"/>
<path d="M418.3,2.9H289.8c-2.6,0-4.8,2.1-4.8,4.8v19.5c0,2.6,2.1,4.8,4.8,4.8h128.5c2.6,0,4.8-2.1,4.8-4.8V7.7
	C423,5.1,420.9,2.9,418.3,2.9z M397,19.4c0,1.1-0.9,2.1-2.1,2.1h-89.9c-1.1,0-2.1-0.9-2.1-2.1V16c0-1.1,0.9-2.1,2.1-2.1h89.9
	c1.1,0,2.1,0.9,2.1,2.1V19.4z"/>
</svg>
