<?xml version="1.0" encoding="utf-8"?>
<!-- Generator: Adobe Illustrator 22.1.0, SVG Export Plug-In . SVG Version: 6.00 Build 0)  -->
<svg version="1.1" id="Layer_1" xmlns="http://www.w3.org/2000/svg" xmlns:xlink="http://www.w3.org/1999/xlink" x="0px" y="0px"
	 viewBox="0 0 350 38" style="enable-background:new 0 0 350 38;" xml:space="preserve">
<path d="M113,11.9H2c-1.1,0-2-0.9-2-2v-8c0-1.1,0.9-2,2-2h111c1.1,0,2,0.9,2,2v8C115,11,114.1,11.9,113,11.9z"/>
<path d="M95,38H20c-1.1,0-2-0.9-2-2v-8c0-1.1,0.9-2,2-2h75c1.1,0,2,0.9,2,2v8C97,37.1,96.1,38,95,38z"/>
<path d="M330,38h-75c-1.1,0-2-0.9-2-2v-8c0-1.1,0.9-2,2-2h75c1.1,0,2,0.9,2,2v8C332,37.1,331.1,38,330,38z"/>
<path d="M348,11.9H237c-1.1,0-2-0.9-2-2v-8c0-1.1,0.9-2,2-2h111c1.1,0,2,0.9,2,2v8C350,11,349.1,11.9,348,11.9z"/>
</svg>
